<?xml version="1.0" standalone="no"?>
<!DOCTYPE svg PUBLIC "-//W3C//DTD SVG 20010904//EN"
 "http://www.w3.org/TR/2001/REC-SVG-20010904/DTD/svg10.dtd">
<svg version="1.0" xmlns="http://www.w3.org/2000/svg"
 width="700.000000pt" height="700.000000pt" viewBox="0 0 700.000000 700.000000"
 preserveAspectRatio="xMidYMid meet">
<metadata>
Created by potrace 1.14, written by Peter Selinger 2001-2017
</metadata>
<g transform="translate(0.000000,700.000000) scale(0.100000,-0.100000)"
fill="#000000" stroke="none">
<path d="M0 6287 l0 -714 77 -40 c43 -22 141 -73 218 -113 77 -40 194 -101
260 -135 66 -34 179 -93 250 -130 72 -37 184 -96 250 -130 66 -34 185 -96 265
-138 150 -77 292 -151 490 -254 63 -33 192 -100 285 -148 94 -48 173 -90 177
-94 4 -3 -48 -35 -115 -70 -186 -97 -445 -233 -614 -322 -189 -99 -281 -148
-408 -214 -71 -37 -161 -85 -200 -105 -38 -21 -119 -63 -180 -95 -147 -77
-570 -298 -670 -351 l-80 -43 -3 -716 -2 -716 156 81 c202 105 308 161 419
220 88 47 169 89 430 225 72 37 153 80 180 95 28 15 102 55 165 88 517 269
745 389 885 464 50 26 122 64 160 84 39 19 111 57 160 83 260 137 339 178 430
226 251 132 297 156 410 215 66 35 152 79 190 100 39 20 135 72 215 114 l146
77 -2 560 c0 307 -3 561 -5 563 -4 3 -204 107 -434 226 -77 40 -185 96 -240
125 -55 29 -170 89 -255 133 -85 44 -198 102 -250 129 -138 73 -535 278 -795
413 -88 45 -205 106 -260 135 -111 58 -274 143 -500 260 -82 43 -195 101 -250
130 -55 29 -172 90 -260 135 -172 89 -265 137 -527 274 l-168 88 0 -715z"/>
<path d="M2800 700 l0 -700 2100 0 2100 0 0 700 0 700 -2100 0 -2100 0 0 -700z"/>
</g>
</svg>
